<svg width="213" height="52" viewBox="0 0 213 52" fill="none" xmlns="http://www.w3.org/2000/svg">
<g clip-path="url(#clip0_32_136)">
<path d="M55.1072 39.5684V26.0647H61.4097C63.0238 26.0647 64.2536 26.3863 65.099 27.0293C65.9445 27.6595 66.3672 28.5083 66.3672 29.5757C66.3672 30.2959 66.2007 30.9132 65.8676 31.4276C65.5346 31.9292 65.0862 32.3215 64.5226 32.6044C63.9718 32.8745 63.3697 33.0095 62.7164 33.0095L63.0622 32.315C63.818 32.315 64.497 32.4565 65.099 32.7394C65.7011 33.0095 66.1751 33.4082 66.521 33.9355C66.8796 34.4628 67.059 35.1187 67.059 35.9032C67.059 37.0606 66.617 37.9609 65.7331 38.6039C64.8492 39.2469 63.5362 39.5684 61.794 39.5684H55.1072ZM57.6051 37.6008H61.6403C62.5755 37.6008 63.2928 37.4464 63.7924 37.1378C64.292 36.8291 64.5418 36.334 64.5418 35.6524C64.5418 34.9836 64.292 34.4949 63.7924 34.1863C63.2928 33.8647 62.5755 33.704 61.6403 33.704H57.413V31.7556H61.1407C62.0118 31.7556 62.6779 31.6013 63.1391 31.2926C63.6131 30.9839 63.8501 30.521 63.8501 29.9036C63.8501 29.2735 63.6131 28.8041 63.1391 28.4954C62.6779 28.1867 62.0118 28.0324 61.1407 28.0324H57.6051V37.6008ZM69.6863 39.5684V29.267H71.9729V32.1028L71.7039 31.2733C72.0114 30.5788 72.4917 30.0515 73.145 29.6914C73.8112 29.3313 74.6374 29.1513 75.6238 29.1513V31.4469C75.5213 31.4212 75.4252 31.4083 75.3356 31.4083C75.2459 31.3955 75.1562 31.3891 75.0666 31.3891C74.157 31.3891 73.4333 31.6591 72.8952 32.1993C72.3572 32.7266 72.0882 33.5175 72.0882 34.5721V39.5684H69.6863ZM83.4435 39.5684V37.485L83.309 37.0413V33.3953C83.309 32.688 83.0976 32.1414 82.6749 31.7556C82.2522 31.3569 81.6117 31.1576 80.7534 31.1576C80.1769 31.1576 79.6069 31.2476 79.0432 31.4276C78.4924 31.6077 78.0248 31.8585 77.6405 32.18L76.699 30.4245C77.2498 30.0001 77.9031 29.685 78.6589 29.4792C79.4275 29.2606 80.2218 29.1513 81.0416 29.1513C82.5276 29.1513 83.6741 29.5114 84.4811 30.2316C85.301 30.9389 85.7109 32.0385 85.7109 33.5304V39.5684H83.4435ZM80.2154 39.7035C79.4467 39.7035 78.7742 39.5749 78.1978 39.3177C77.6213 39.0476 77.173 38.6811 76.8527 38.2181C76.5453 37.7422 76.3915 37.2085 76.3915 36.6169C76.3915 36.0382 76.526 35.5173 76.7951 35.0543C77.0769 34.5914 77.5316 34.2248 78.1593 33.9548C78.787 33.6847 79.6197 33.5496 80.6573 33.5496H83.6356V35.1508H80.8302C80.0104 35.1508 79.4596 35.2858 79.1777 35.5559C78.8959 35.8131 78.755 36.1346 78.755 36.5205C78.755 36.9577 78.9279 37.305 79.2738 37.5622C79.6197 37.8194 80.1001 37.948 80.7149 37.948C81.3042 37.948 81.8294 37.813 82.2906 37.5429C82.7646 37.2728 83.104 36.8741 83.309 36.3468L83.7125 37.7937C83.4819 38.3981 83.0656 38.8675 82.4635 39.2019C81.8743 39.5363 81.1249 39.7035 80.2154 39.7035ZM88.9856 39.5684V29.267H91.3874V39.5684H88.9856ZM90.1961 27.5694C89.7478 27.5694 89.3763 27.428 89.0816 27.145C88.7998 26.8621 88.6589 26.5213 88.6589 26.1226C88.6589 25.7111 88.7998 25.3703 89.0816 25.1002C89.3763 24.8172 89.7478 24.6758 90.1961 24.6758C90.6445 24.6758 91.0095 24.8108 91.2914 25.0809C91.586 25.3381 91.7333 25.6661 91.7333 26.0647C91.7333 26.4891 91.5924 26.8492 91.3106 27.145C91.0288 27.428 90.6573 27.5694 90.1961 27.5694ZM100.554 29.1513C101.374 29.1513 102.104 29.3121 102.745 29.6336C103.398 29.9551 103.911 30.4502 104.282 31.119C104.654 31.7749 104.839 32.6237 104.839 33.6654V39.5684H102.437V33.9741C102.437 33.0609 102.22 32.3793 101.784 31.9292C101.361 31.4791 100.766 31.254 99.9971 31.254C99.4335 31.254 98.9339 31.3698 98.4983 31.6013C98.0628 31.8327 97.7233 32.18 97.4799 32.643C97.2493 33.0931 97.134 33.6654 97.134 34.3599V39.5684H94.7322V29.267H97.0188V32.0449L96.6152 31.1961C96.9739 30.5403 97.4927 30.0387 98.1717 29.6914C98.8634 29.3313 99.6576 29.1513 100.554 29.1513ZM119.595 39.7614C117.751 39.7614 116.303 39.2405 115.253 38.1988C114.215 37.1571 113.696 35.6524 113.696 33.6847V26.0647H116.194V33.5882C116.194 34.9772 116.489 35.9867 117.078 36.6169C117.68 37.2471 118.526 37.5622 119.614 37.5622C120.703 37.5622 121.542 37.2471 122.132 36.6169C122.721 35.9867 123.016 34.9772 123.016 33.5882V26.0647H125.475V33.6847C125.475 35.6524 124.95 37.1571 123.899 38.1988C122.862 39.2405 121.427 39.7614 119.595 39.7614ZM134.757 29.1513C135.577 29.1513 136.307 29.3121 136.948 29.6336C137.601 29.9551 138.113 30.4502 138.485 31.119C138.856 31.7749 139.042 32.6237 139.042 33.6654V39.5684H136.64V33.9741C136.64 33.0609 136.423 32.3793 135.987 31.9292C135.564 31.4791 134.969 31.254 134.2 31.254C133.636 31.254 133.137 31.3698 132.701 31.6013C132.266 31.8327 131.926 32.18 131.683 32.643C131.452 33.0931 131.337 33.6654 131.337 34.3599V39.5684H128.935V29.267H131.222V32.0449L130.818 31.1961C131.177 30.5403 131.696 30.0387 132.375 29.6914C133.066 29.3313 133.861 29.1513 134.757 29.1513ZM142.281 39.5684V29.267H144.683V39.5684H142.281ZM143.492 27.5694C143.044 27.5694 142.672 27.428 142.378 27.145C142.096 26.8621 141.955 26.5213 141.955 26.1226C141.955 25.7111 142.096 25.3703 142.378 25.1002C142.672 24.8172 143.044 24.6758 143.492 24.6758C143.94 24.6758 144.305 24.8108 144.587 25.0809C144.882 25.3381 145.029 25.6661 145.029 26.0647C145.029 26.4891 144.888 26.8492 144.606 27.145C144.325 27.428 143.953 27.5694 143.492 27.5694ZM150.757 39.5684L146.356 29.267H148.854L152.64 38.3531H151.41L155.33 29.267H157.636L153.235 39.5684H150.757ZM163.87 39.7035C162.73 39.7035 161.731 39.4784 160.873 39.0283C160.027 38.5653 159.368 37.9351 158.894 37.1378C158.432 36.3404 158.202 35.4337 158.202 34.4177C158.202 33.3889 158.426 32.4822 158.874 31.6977C159.336 30.9004 159.963 30.2766 160.757 29.8265C161.564 29.3764 162.48 29.1513 163.505 29.1513C164.504 29.1513 165.395 29.3699 166.176 29.8072C166.957 30.2445 167.572 30.8618 168.021 31.6591C168.469 32.4565 168.693 33.3953 168.693 34.4756C168.693 34.5785 168.687 34.6942 168.674 34.8229C168.674 34.9515 168.668 35.0736 168.655 35.1894H160.104V33.5882H167.387L166.445 34.0898C166.458 33.4982 166.336 32.9773 166.08 32.5272C165.824 32.0771 165.472 31.7234 165.023 31.4662C164.588 31.209 164.082 31.0804 163.505 31.0804C162.916 31.0804 162.397 31.209 161.949 31.4662C161.513 31.7234 161.167 32.0835 160.911 32.5465C160.668 32.9966 160.546 33.5304 160.546 34.1477V34.5335C160.546 35.1508 160.687 35.6974 160.969 36.1732C161.251 36.6491 161.648 37.0156 162.16 37.2728C162.673 37.53 163.262 37.6586 163.928 37.6586C164.504 37.6586 165.023 37.5686 165.484 37.3886C165.946 37.2085 166.355 36.9256 166.714 36.5398L168.002 38.0252C167.54 38.5653 166.957 38.9833 166.253 39.2791C165.561 39.562 164.767 39.7035 163.87 39.7035ZM171.193 39.5684V29.267H173.479V32.1028L173.21 31.2733C173.518 30.5788 173.998 30.0515 174.651 29.6914C175.317 29.3313 176.144 29.1513 177.13 29.1513V31.4469C177.027 31.4212 176.931 31.4083 176.842 31.4083C176.752 31.3955 176.662 31.3891 176.573 31.3891C175.663 31.3891 174.939 31.6591 174.401 32.1993C173.863 32.7266 173.594 33.5175 173.594 34.5721V39.5684H171.193ZM182.624 39.7035C181.766 39.7035 180.94 39.5942 180.145 39.3755C179.364 39.144 178.743 38.8675 178.282 38.546L179.204 36.7134C179.665 37.0092 180.216 37.2535 180.856 37.4464C181.497 37.6393 182.137 37.7358 182.778 37.7358C183.534 37.7358 184.078 37.6329 184.411 37.4271C184.757 37.2214 184.93 36.9449 184.93 36.5976C184.93 36.3147 184.815 36.1025 184.584 35.961C184.354 35.8067 184.053 35.691 183.681 35.6138C183.31 35.5366 182.893 35.4659 182.432 35.4016C181.984 35.3373 181.529 35.2537 181.068 35.1508C180.619 35.0351 180.21 34.8743 179.838 34.6685C179.467 34.4499 179.166 34.1605 178.935 33.8004C178.704 33.4403 178.589 32.9645 178.589 32.3729C178.589 31.717 178.775 31.1511 179.146 30.6753C179.518 30.1866 180.037 29.8136 180.703 29.5564C181.382 29.2863 182.182 29.1513 183.105 29.1513C183.796 29.1513 184.495 29.2285 185.199 29.3828C185.904 29.5371 186.486 29.7557 186.948 30.0387L186.025 31.8713C185.539 31.5755 185.045 31.3762 184.546 31.2733C184.059 31.1576 183.572 31.0997 183.085 31.0997C182.355 31.0997 181.811 31.209 181.452 31.4276C181.106 31.6463 180.933 31.9228 180.933 32.2572C180.933 32.5658 181.049 32.7973 181.279 32.9516C181.51 33.106 181.811 33.2281 182.182 33.3182C182.554 33.4082 182.964 33.4853 183.412 33.5496C183.873 33.6011 184.328 33.6847 184.776 33.8004C185.225 33.9162 185.635 34.0769 186.006 34.2827C186.39 34.4756 186.698 34.7521 186.928 35.1122C187.159 35.4723 187.274 35.9417 187.274 36.5205C187.274 37.1635 187.082 37.7229 186.698 38.1988C186.326 38.6746 185.795 39.0476 185.103 39.3177C184.411 39.5749 183.585 39.7035 182.624 39.7035ZM189.535 39.5684V29.267H191.937V39.5684H189.535ZM190.745 27.5694C190.297 27.5694 189.926 27.428 189.631 27.145C189.349 26.8621 189.208 26.5213 189.208 26.1226C189.208 25.7111 189.349 25.3703 189.631 25.1002C189.926 24.8172 190.297 24.6758 190.745 24.6758C191.194 24.6758 191.559 24.8108 191.841 25.0809C192.135 25.3381 192.283 25.6661 192.283 26.0647C192.283 26.4891 192.142 26.8492 191.86 27.145C191.578 27.428 191.207 27.5694 190.745 27.5694ZM199.144 39.7035C198.016 39.7035 197.145 39.4141 196.53 38.8354C195.916 38.2438 195.608 37.3757 195.608 36.2311V26.9907H198.01V36.1732C198.01 36.6619 198.132 37.0413 198.375 37.3114C198.631 37.5815 198.984 37.7165 199.432 37.7165C199.97 37.7165 200.418 37.575 200.777 37.2921L201.449 39.009C201.168 39.2405 200.822 39.4141 200.412 39.5299C200.002 39.6456 199.579 39.7035 199.144 39.7035ZM193.917 31.2733V29.3442H200.758V31.2733H193.917ZM204.275 43.4459C203.775 43.4459 203.276 43.3623 202.776 43.1952C202.277 43.028 201.86 42.7965 201.527 42.5007L202.488 40.7259C202.731 40.9445 203.007 41.1182 203.314 41.2468C203.622 41.3754 203.936 41.4397 204.256 41.4397C204.691 41.4397 205.044 41.3304 205.313 41.1117C205.582 40.8931 205.831 40.5266 206.062 40.0121L206.658 38.6618L206.85 38.3724L210.731 29.267H213.037L208.233 40.398C207.913 41.1696 207.554 41.7805 207.157 42.2306C206.773 42.6807 206.337 42.9958 205.851 43.1759C205.377 43.3559 204.851 43.4459 204.275 43.4459ZM206.389 39.935L201.758 29.267H204.256L208.022 38.1602L206.389 39.935Z" fill="black"/>
<path d="M59.0879 19.436C58.4589 19.436 57.8829 19.2903 57.3602 18.9988C56.8474 18.7073 56.4358 18.27 56.1262 17.687C55.826 17.0942 55.6761 16.3461 55.6761 15.4424C55.6761 14.529 55.8213 13.7808 56.1117 13.1978C56.4119 12.6147 56.8184 12.1823 57.3312 11.9005C57.844 11.609 58.4299 11.4633 59.0879 11.4633C59.8526 11.4633 60.5252 11.6285 61.1059 11.9588C61.6964 12.2892 62.161 12.7508 62.4996 13.3435C62.8481 13.9363 63.0223 14.6359 63.0223 15.4424C63.0223 16.2489 62.8481 16.9534 62.4996 17.5558C62.161 18.1486 61.6964 18.6101 61.1059 18.9405C60.5252 19.2709 59.8526 19.436 59.0879 19.436ZM54.7905 22.1616V11.5507H56.5182V13.3872L56.4601 15.4569L56.6053 17.5267V22.1616H54.7905ZM58.8846 17.8765C59.3202 17.8765 59.7075 17.7793 60.0461 17.585C60.3945 17.3906 60.6704 17.1088 60.8736 16.7396C61.0769 16.3704 61.1785 15.9379 61.1785 15.4424C61.1785 14.9371 61.0769 14.5047 60.8736 14.1452C60.6704 13.7759 60.3945 13.4941 60.0461 13.2998C59.7075 13.1055 59.3202 13.0083 58.8846 13.0083C58.4491 13.0083 58.0571 13.1055 57.7087 13.2998C57.3602 13.4941 57.0844 13.7759 56.8811 14.1452C56.6779 14.5047 56.5762 14.9371 56.5762 15.4424C56.5762 15.9379 56.6779 16.3704 56.8811 16.7396C57.0844 17.1088 57.3602 17.3906 57.7087 17.585C58.0571 17.7793 58.4491 17.8765 58.8846 17.8765ZM64.8887 19.334V11.5507H66.6164V13.6933L66.4131 13.0666C66.6454 12.5419 67.0083 12.1435 67.502 11.8714C68.005 11.5993 68.6293 11.4633 69.3748 11.4633V13.1978C69.2971 13.1783 69.2245 13.1686 69.157 13.1686C69.0891 13.1589 69.0212 13.154 68.9538 13.154C68.2663 13.154 67.7197 13.3581 67.3132 13.7662C66.9067 14.1646 66.7035 14.7622 66.7035 15.559V19.334H64.8887ZM74.4728 19.436C73.679 19.436 72.9727 19.266 72.3531 18.9259C71.7336 18.5761 71.2451 18.0999 70.8868 17.4975C70.5286 16.8951 70.3496 16.21 70.3496 15.4424C70.3496 14.665 70.5286 13.98 70.8868 13.3872C71.2451 12.7848 71.7336 12.3135 72.3531 11.9734C72.9727 11.6333 73.679 11.4633 74.4728 11.4633C75.276 11.4633 75.9874 11.6333 76.6069 11.9734C77.2359 12.3135 77.7248 12.7799 78.0733 13.3727C78.4315 13.9654 78.6104 14.6553 78.6104 15.4424C78.6104 16.21 78.4315 16.8951 78.0733 17.4975C77.7248 18.0999 77.2359 18.5761 76.6069 18.9259C75.9874 19.266 75.276 19.436 74.4728 19.436ZM74.4728 17.8765C74.9181 17.8765 75.3148 17.7793 75.6633 17.585C76.0117 17.3906 76.2828 17.1088 76.4763 16.7396C76.6795 16.3704 76.7812 15.9379 76.7812 15.4424C76.7812 14.9371 76.6795 14.5047 76.4763 14.1452C76.2828 13.7759 76.0117 13.4941 75.6633 13.2998C75.3148 13.1055 74.9228 13.0083 74.4873 13.0083C74.0419 13.0083 73.6453 13.1055 73.2968 13.2998C72.9582 13.4941 72.6871 13.7759 72.4838 14.1452C72.2806 14.5047 72.1789 14.9371 72.1789 15.4424C72.1789 15.9379 72.2806 16.3704 72.4838 16.7396C72.6871 17.1088 72.9582 17.3906 73.2968 17.585C73.6453 17.7793 74.0372 17.8765 74.4728 17.8765ZM83.772 19.436C83.0269 19.436 82.354 19.2709 81.754 18.9405C81.1635 18.6004 80.6989 18.134 80.3603 17.5412C80.0217 16.9485 79.8522 16.2489 79.8522 15.4424C79.8522 14.6359 80.0217 13.9363 80.3603 13.3435C80.6989 12.7508 81.1635 12.2892 81.754 11.9588C82.354 11.6285 83.0269 11.4633 83.772 11.4633C84.4207 11.4633 85.0014 11.609 85.5142 11.9005C86.027 12.1823 86.4335 12.6147 86.7337 13.1978C87.0339 13.7808 87.1838 14.529 87.1838 15.4424C87.1838 16.3461 87.0386 17.0942 86.7483 17.687C86.4579 18.27 86.0561 18.7073 85.5432 18.9988C85.0304 19.2903 84.4399 19.436 83.772 19.436ZM83.9898 17.8765C84.4254 17.8765 84.8126 17.7793 85.1513 17.585C85.4997 17.3906 85.7755 17.1088 85.9788 16.7396C86.1919 16.3704 86.2982 15.9379 86.2982 15.4424C86.2982 14.9371 86.1919 14.5047 85.9788 14.1452C85.7755 13.7759 85.4997 13.4941 85.1513 13.2998C84.8126 13.1055 84.4254 13.0083 83.9898 13.0083C83.5543 13.0083 83.1623 13.1055 82.8139 13.2998C82.4752 13.4941 82.1994 13.7759 81.9863 14.1452C81.7831 14.5047 81.6814 14.9371 81.6814 15.4424C81.6814 15.9379 81.7831 16.3704 81.9863 16.7396C82.1994 17.1088 82.4752 17.3906 82.8139 17.585C83.1623 17.7793 83.5543 17.8765 83.9898 17.8765ZM86.3417 19.334V17.4975L86.4143 15.4278L86.2692 13.3581V8.51904H88.0694V19.334H86.3417ZM91.1839 19.436C90.8547 19.436 90.5742 19.3243 90.3419 19.1008C90.1096 18.8676 89.9935 18.5761 89.9935 18.2263C89.9935 17.8571 90.1096 17.5655 90.3419 17.3518C90.5742 17.1283 90.8547 17.0165 91.1839 17.0165C91.5127 17.0165 91.7937 17.1283 92.026 17.3518C92.2583 17.5655 92.3744 17.8571 92.3744 18.2263C92.3744 18.5761 92.2583 18.8676 92.026 19.1008C91.7937 19.3243 91.5127 19.436 91.1839 19.436ZM102.748 19.436C102.09 19.436 101.504 19.2903 100.991 18.9988C100.478 18.7073 100.072 18.27 99.7714 17.687C99.481 17.0942 99.3359 16.3461 99.3359 15.4424C99.3359 14.529 99.4857 13.7808 99.7859 13.1978C100.095 12.6147 100.507 12.1823 101.02 11.9005C101.543 11.609 102.119 11.4633 102.748 11.4633C103.512 11.4633 104.185 11.6285 104.766 11.9588C105.356 12.2892 105.821 12.7508 106.159 13.3435C106.508 13.9363 106.682 14.6359 106.682 15.4424C106.682 16.2489 106.508 16.9485 106.159 17.5412C105.821 18.134 105.356 18.6004 104.766 18.9405C104.185 19.2709 103.512 19.436 102.748 19.436ZM98.4503 19.334V8.51904H100.265V13.3581L100.12 15.4278L100.178 17.4975V19.334H98.4503ZM102.544 17.8765C102.98 17.8765 103.367 17.7793 103.706 17.585C104.054 17.3906 104.33 17.1088 104.533 16.7396C104.737 16.3704 104.838 15.9379 104.838 15.4424C104.838 14.9371 104.737 14.5047 104.533 14.1452C104.33 13.7759 104.054 13.4941 103.706 13.2998C103.367 13.1055 102.98 13.0083 102.544 13.0083C102.109 13.0083 101.717 13.1055 101.368 13.2998C101.02 13.4941 100.744 13.7759 100.541 14.1452C100.338 14.5047 100.236 14.9371 100.236 15.4424C100.236 15.9379 100.338 16.3704 100.541 16.7396C100.744 17.1088 101.02 17.3906 101.368 17.585C101.717 17.7793 102.109 17.8765 102.544 17.8765ZM108.975 22.2637C108.597 22.2637 108.22 22.2005 107.842 22.0742C107.465 21.9479 107.15 21.773 106.898 21.5495L107.624 20.2085C107.808 20.3737 108.016 20.5049 108.249 20.6021C108.481 20.6993 108.718 20.7478 108.96 20.7478C109.289 20.7478 109.555 20.6652 109.759 20.5C109.962 20.3349 110.151 20.0579 110.325 19.6692L110.775 18.649L110.92 18.4303L113.853 11.5507H115.595L111.965 19.9608C111.723 20.5438 111.452 21.0053 111.152 21.3454C110.862 21.6855 110.533 21.9236 110.165 22.0596C109.807 22.1956 109.41 22.2637 108.975 22.2637ZM110.572 19.6109L107.073 11.5507H108.96L111.806 18.27L110.572 19.6109Z" fill="#FF7697"/>
<path d="M2.64533 22.563C2.64533 22.563 1.44949 16.5737 4.11096 15.4354C6.77241 14.297 5.76861 12.5589 5.76861 12.5589C5.76861 12.5589 6.27657 7.76414 9.72069 6.61358C13.1648 5.46302 16.3488 5.39962 16.3488 5.39962C16.3488 5.39962 19.4818 2.07471 21.9901 2.07471C24.4985 2.07471 27.1526 3.86393 27.1526 3.86393C27.1526 3.86393 29.6537 3.42272 31.9968 5.23873C34.3398 7.05479 36.5857 12.4615 36.5857 12.4615C36.5857 12.4615 39.5437 12.147 41.493 15.1794C43.4424 18.2118 43.819 19.2088 42.9902 21.349C42.1614 23.4893 40.4405 25.2175 40.4405 25.2175L2.8665 24.6423L2.64533 22.563Z" fill="#FF7697"/>
<path d="M43.1701 25.1641H2.11377V29.4724L6.23434 38.3677L13.5147 44.648L22.6526 46.7057L29.2711 45.1838L34.7581 48.9563H36.9785V40.554C38.5584 38.2462 41.8592 33.292 42.4228 31.9374C42.9865 30.5827 43.156 26.8574 43.1701 25.1641Z" fill="white"/>
<path d="M35.3729 40.2945C35.0399 40.5822 34.8844 41.021 34.9548 41.4573L36.1045 48.2535L29.5517 44.2898C29.2406 44.102 28.8614 44.0583 28.5163 44.1728C26.55 44.8141 24.4889 45.1382 22.3888 45.1382C11.7478 45.1382 3.03186 36.7113 2.52631 26.1636H2.75235H2.75478H42.2538C41.9889 31.6069 39.5146 36.7113 35.3729 40.2945ZM3.75131 16.9128C4.41244 16.1401 5.24125 15.5819 6.21345 15.2528C8.23813 14.5678 10.5155 15.0066 11.7527 15.5721C10.5277 17.7465 10.5715 20.2109 10.5763 20.3401C10.5933 21.0349 11.1694 21.5833 11.8621 21.5638C12.5523 21.5443 13.0968 20.9617 13.0822 20.2768C13.0822 20.2329 13.0506 17.5003 14.5819 15.9329C15.3183 15.1797 16.2978 14.814 17.5812 14.814C18.2739 14.814 18.8354 14.2509 18.8354 13.5562C18.8354 12.8615 18.2739 12.2984 17.5812 12.2984C15.9381 12.2984 14.543 12.7396 13.4201 13.6123C12.02 12.7932 9.48502 12.1058 6.91105 12.5056C6.86485 10.7017 7.43118 9.23185 8.60514 8.13004C11.7989 5.12201 16.0767 6.32375 16.2566 6.37738C16.869 6.55533 17.5229 6.24578 17.7684 5.65341C17.8145 5.54615 18.9885 2.87209 21.7204 2.53814C23.1278 2.36506 24.6614 3.07198 25.8329 4.05434C24.7927 4.65885 24.1291 5.27561 24.0878 5.31458C23.5823 5.78991 23.558 6.58461 24.0319 7.09162C24.5059 7.59863 25.2982 7.62303 25.8038 7.15014C25.8111 7.14281 26.8999 6.14096 28.3534 5.64853C29.6246 5.21465 30.7184 5.3024 31.7052 5.91667C33.5913 7.09162 34.9184 9.17822 35.6573 12.1253C34.86 12.3228 34.143 12.5909 33.5524 12.8566C32.692 12.4227 31.8462 12.2277 31.2409 12.1887C30.5482 12.1424 29.9527 12.6689 29.9065 13.3612C29.8555 14.0535 30.3805 14.6483 31.0684 14.697C31.2191 14.7092 31.958 14.7945 32.7236 15.2528C32.7916 15.3064 32.8646 15.3527 32.9399 15.3917C33.5816 15.8378 34.2062 16.5691 34.4785 17.7635C34.634 18.4412 35.3073 18.8629 35.983 18.7069C36.5639 18.5729 36.9552 18.0561 36.9552 17.4832C36.9552 17.3906 36.9455 17.2955 36.9236 17.2005C36.6927 16.1888 36.2843 15.3674 35.7812 14.7019C36.2454 14.5605 36.7583 14.4411 37.2882 14.385C38.2045 14.2899 39.0309 14.3996 39.7406 14.7141C41.0482 15.2918 42.0496 16.5764 42.3583 18.0731C42.6233 19.3553 42.5017 21.3395 40.5451 23.6504H25.1232C25.3104 22.8704 25.393 22.1196 25.393 21.4102C25.393 17.9927 23.5725 15.5356 23.468 15.3966C23.0499 14.8433 22.2625 14.736 21.7107 15.1553C21.159 15.5746 21.052 16.3619 21.4676 16.9128C21.5722 17.0542 23.7184 20.0159 22.5152 23.648H3.55687C2.80583 21.7052 2.13013 18.8093 3.75131 16.9128ZM44.7841 25.1886C44.7841 25.0764 44.7841 24.9619 44.779 24.8546C44.7547 24.2111 44.2491 23.6943 43.6175 23.648C44.507 22.161 44.9664 20.6083 44.9664 19.0799C44.9664 18.568 44.9152 18.061 44.8106 17.5588C44.3418 15.2796 42.7836 13.3051 40.7469 12.4081C39.9521 12.0571 39.0868 11.8694 38.1632 11.8401C37.2833 8.06668 35.5576 5.35603 33.025 3.77889C31.6395 2.91841 30.0524 2.66489 28.3923 3.03053C26.7323 1.21938 24.1024 -0.287079 21.4166 0.0420003C18.444 0.405207 16.7281 2.49425 15.9527 3.74476C14.1079 3.44249 10.1169 3.25236 6.88675 6.29452C4.63115 8.41524 4.25444 11.1039 4.44404 13.2661C3.44992 13.7488 2.57735 14.4216 1.84575 15.2747C-0.332028 17.8294 0.103038 21.203 0.914843 23.6919C0.404427 23.8357 0.0228347 24.2964 0.000959615 24.8522C-0.0039015 24.9619 -0.00390625 25.074 -0.00390625 25.1886C-0.00390625 37.5742 10.0416 47.649 22.3913 47.649C24.5593 47.649 26.6909 47.3395 28.7399 46.7325L37.1521 51.8197C37.5725 52.0731 38.1 52.0585 38.5059 51.7833C38.9118 51.5076 39.1184 51.0176 39.0357 50.5328L37.5458 41.7206C42.1566 37.4742 44.7841 31.4898 44.7841 25.1886Z" fill="black"/>
<path d="M16.5263 7.86169C11.9204 6.82572 9.87626 9.19997 9.7912 9.30234C9.34639 9.83619 9.41689 10.6284 9.94919 11.0745C10.4742 11.5133 11.252 11.4499 11.6992 10.938C11.7818 10.8527 12.9922 9.64362 15.977 10.3164C16.6527 10.4675 17.3235 10.0434 17.4742 9.36571C17.4961 9.27307 17.5058 9.18047 17.5058 9.08783C17.5058 8.51257 17.1096 7.99334 16.5263 7.86169Z" fill="white"/>
<path d="M7.52344 16.006C6.12343 16.3741 5.11963 17.0908 4.53382 18.1389C3.66613 19.6941 4.12308 21.3274 4.17899 21.5078C4.3807 22.1732 5.08073 22.5462 5.74425 22.3463C6.40294 22.1464 6.77725 21.4492 6.5828 20.7886C6.5731 20.7497 6.37378 19.9745 6.73349 19.3505C6.97414 18.9287 7.45538 18.6216 8.16023 18.4363C8.72413 18.2877 9.096 17.7782 9.096 17.22C9.096 17.1151 9.08384 17.0079 9.05467 16.9006C8.87969 16.2327 8.19426 15.8305 7.52344 16.006Z" fill="white"/>
<path d="M30.3222 7.29639C26.494 7.29639 24.6979 10.4336 24.2823 12.0912C24.1121 12.764 24.5204 13.449 25.1937 13.6172C25.8645 13.7854 26.5426 13.3807 26.7128 12.7103C26.793 12.4081 27.5635 9.80958 30.3222 9.80958C31.0149 9.80958 31.5764 9.24649 31.5764 8.55176C31.5764 7.85947 31.0149 7.29639 30.3222 7.29639Z" fill="white"/>
<path d="M12.6326 33.5542C12.6326 32.3452 13.6096 31.3652 14.8128 31.3652C16.0184 31.3652 16.993 32.3452 16.993 33.5542C16.993 34.7608 16.0159 35.7408 14.8128 35.7408C13.6072 35.7408 12.6326 34.7608 12.6326 33.5542Z" fill="black"/>
<path d="M20.5222 33.5542C20.5222 32.3452 21.4993 31.3652 22.7048 31.3652C23.9104 31.3652 24.8851 32.3452 24.8851 33.5542C24.8851 34.7608 23.908 35.7408 22.7048 35.7408C21.4993 35.7408 20.5222 34.7608 20.5222 33.5542Z" fill="black"/>
<path d="M28.4116 33.5542C28.4116 32.3452 29.3887 31.3652 30.5942 31.3652C31.7998 31.3652 32.7745 32.3452 32.7745 33.5542C32.7745 34.7608 31.7974 35.7408 30.5942 35.7408C29.3887 35.7408 28.4116 34.7608 28.4116 33.5542Z" fill="black"/>
</g>
<defs>
<clipPath id="clip0_32_136">
<rect width="213" height="52" fill="white"/>
</clipPath>
</defs>
</svg>
