<svg width="27" height="28" viewBox="0 0 27 28" fill="none" xmlns="http://www.w3.org/2000/svg">
<path d="M20.9171 21.7011C20.7253 21.8511 20.6357 22.0799 20.6763 22.3074L21.3384 25.8511L17.5645 23.7844C17.3853 23.6865 17.167 23.6636 16.9682 23.7234C15.8357 24.0576 14.6487 24.2267 13.4393 24.2267C7.31088 24.2267 2.29115 19.8327 1.99999 14.3328H2.13017H2.13157H24.8799C24.7273 17.1711 23.3023 19.8327 20.9171 21.7011ZM2.7055 9.50914C3.08625 9.10621 3.56358 8.81514 4.12351 8.64355C5.28955 8.28638 6.60117 8.51517 7.31368 8.81006C6.60817 9.94384 6.63337 11.2289 6.63617 11.2962C6.64597 11.6585 6.97772 11.9445 7.37667 11.9343C7.77422 11.9241 8.08778 11.6204 8.07938 11.2632C8.07938 11.2403 8.06118 9.81546 8.94306 8.99817C9.3672 8.60542 9.93133 8.41476 10.6704 8.41476C11.0694 8.41476 11.3927 8.12114 11.3927 7.75889C11.3927 7.39664 11.0694 7.10303 10.6704 7.10303C9.72416 7.10303 8.92066 7.33309 8.27395 7.78813C7.46765 7.36105 6.00765 7.00261 4.52525 7.21107C4.49866 6.27049 4.82481 5.50404 5.50092 4.92953C7.34028 3.36104 9.80395 3.98767 9.90753 4.01564C10.2603 4.10842 10.6368 3.947 10.7782 3.63813C10.8048 3.58221 11.4809 2.18786 13.0543 2.01372C13.8648 1.92348 14.7481 2.29208 15.4228 2.80432C14.8237 3.11954 14.4415 3.44112 14.4177 3.46145C14.1266 3.70931 14.1126 4.12367 14.3855 4.38805C14.6585 4.65243 15.1148 4.66514 15.406 4.41856C15.4102 4.41474 16.0373 3.89234 16.8744 3.63559C17.6065 3.40934 18.2364 3.4551 18.8047 3.7754C19.891 4.38805 20.6553 5.47608 21.0808 7.01278C20.6217 7.11574 20.2087 7.25556 19.8686 7.3941C19.3731 7.16785 18.8859 7.06617 18.5374 7.04583C18.1384 7.02168 17.7955 7.29623 17.7689 7.65721C17.7395 8.01819 18.0418 8.32833 18.438 8.35375C18.5248 8.36011 18.9503 8.40459 19.3913 8.64355C19.4305 8.67151 19.4725 8.69566 19.5158 8.716C19.8854 8.9486 20.2451 9.32992 20.4019 9.95274C20.4915 10.3061 20.8793 10.526 21.2684 10.4446C21.603 10.3747 21.8283 10.1053 21.8283 9.80657C21.8283 9.75827 21.8227 9.70869 21.8101 9.65912C21.6771 9.13163 21.442 8.70329 21.1522 8.35629C21.4196 8.28257 21.7149 8.22029 22.0201 8.19105C22.5478 8.14148 23.0238 8.19868 23.4325 8.36264C24.1856 8.66388 24.7623 9.33373 24.9401 10.1142C25.0927 10.7827 25.0227 11.8174 23.8959 13.0223H15.014C15.1218 12.6156 15.1694 12.2241 15.1694 11.8542C15.1694 10.0722 14.121 8.79099 14.0608 8.71854C13.82 8.43001 13.3665 8.37408 13.0487 8.59271C12.731 8.81133 12.6694 9.22188 12.9087 9.50914C12.9689 9.58286 14.205 11.1272 13.512 13.0211H2.59351C2.16097 12.008 1.77182 10.498 2.7055 9.50914ZM26.3371 13.8244C26.3371 13.7659 26.3371 13.7062 26.3343 13.6502C26.3203 13.3147 26.0292 13.0452 25.6652 13.0211C26.1776 12.2457 26.4421 11.4361 26.4421 10.6391C26.4421 10.3722 26.4127 10.1078 26.3525 9.84597C26.0824 8.65753 25.1851 7.62798 24.012 7.16023C23.5543 6.97719 23.056 6.87932 22.524 6.86407C22.0173 4.89648 21.0234 3.48306 19.5648 2.66069C18.7669 2.21201 17.8529 2.07982 16.8968 2.27047C15.9407 1.32608 14.4261 0.540567 12.8793 0.712159C11.1674 0.901546 10.1791 1.99084 9.73256 2.64289C8.6701 2.48528 6.3716 2.38614 4.51125 3.97242C3.21223 5.07824 2.99526 6.48021 3.10444 7.60764C2.53192 7.85931 2.02939 8.21012 1.60804 8.65499C0.353813 9.98706 0.604377 11.7462 1.07191 13.0439C0.777954 13.1189 0.558186 13.3592 0.545588 13.649C0.542788 13.7062 0.542786 13.7646 0.542786 13.8244C0.542786 20.2826 6.32821 25.5359 13.4407 25.5359C14.6893 25.5359 15.9169 25.3745 17.097 25.058L21.9417 27.7107C22.1839 27.8428 22.4876 27.8352 22.7214 27.6916C22.9552 27.548 23.0742 27.2925 23.0266 27.0395L22.1685 22.4447C24.8239 20.2305 26.3371 17.1101 26.3371 13.8244Z" fill="#3581FF"/>
</svg>
